Coordinates
version=1
nRows=8
nColumns=40
inDegrees=yes

Units are S.I. units (second, meters, Newtons, ...)
Angles are in degrees.

endheader
time	pelvis_tilt	pelvis_list	pelvis_rotation	pelvis_tx	pelvis_ty	pelvis_tz	hip_flexion_r	hip_adduction_r	hip_rotation_r	knee_angle_r	knee_angle_r_beta	ankle_angle_r	subtalar_angle_r	mtp_angle_r	hip_flexion_l	hip_adduction_l	hip_rotation_l	knee_angle_l	knee_angle_l_beta	ankle_angle_l	subtalar_angle_l	mtp_angle_l	lumbar_extension	lumbar_bending	lumbar_rotation	arm_flex_r	arm_add_r	arm_rot_r	elbow_flex_r	pro_sup_r	wrist_flex_r	wrist_dev_r	arm_flex_l	arm_add_l	arm_rot_l	elbow_flex_l	pro_sup_l	wrist_flex_l	wrist_dev_l
     45.39000000	     -4.96350669	     -6.38144808	      7.15931059	      1.07143820	      0.91265024	      0.46983255	     -1.83462820	      4.68797412	    -17.56878954	     10.50201624	     10.50201624	     19.01429568	      2.84036208	     -2.18763554	     34.23451774	     -8.20404804	     -1.52253714	     19.51224082	     19.51224082	      3.51485229	     -6.21119710	      8.10806597	     -9.84372351	      6.36059142	      4.07323888	     51.31973788	    -17.40431646	     -2.03050547	     88.27772492	     44.44534463	      0.00000000	      0.00000000	    -22.67799222	    -10.92073141	     18.01071949	     33.73104225	     44.43862504	      0.00000000	      0.00000000
     45.40157143	     -4.92860833	     -6.17067531	      7.11079748	      1.07292672	      0.91133269	      0.46727339	     -2.34657622	      4.27023174	    -17.36556829	     11.00489825	     11.00489825	     19.46601704	      2.62006142	     -2.22259961	     33.97198363	     -7.86375199	     -1.63712399	     20.51549962	     20.51549962	      2.97647644	     -6.84335431	      7.84196092	     -9.68266388	      6.07869629	      3.92520823	     51.10233087	    -17.21464804	     -2.03119782	     88.80423284	     44.43151017	      0.00000000	      0.00000000	    -22.96400488	    -10.72910475	     18.02415451	     33.71650622	     44.43844559	      0.00000000	      0.00000000
     45.41314286	     -4.99727955	     -6.02517013	      7.06066576	      1.07427081	      0.90990862	      0.46459438	     -2.40577836	      3.80275514	    -17.11090073	     12.19052961	     12.19052961	     20.43073246	      2.18775637	     -1.14499742	     33.66063795	     -7.41894055	     -0.98430485	     21.08552926	     21.08552926	      1.10424040	     -8.80157927	      4.93838581	     -9.53042648	      5.89675742	      4.36151661	     49.98310494	    -17.58859193	     -2.85711858	     91.85981299	     44.40732811	      0.00000000	      0.00000000	    -22.97775265	    -10.68555734	     17.33023820	     34.26899422	     44.58643895	      0.00000000	      0.00000000
     45.42471429	     -4.83842693	     -5.79226842	      7.02710688	      1.07584102	      0.90926525	      0.46185609	     -3.05129720	      3.35307844	    -16.96139763	     12.68070636	     12.68070636	     20.65921247	      2.03778591	     -1.22702518	     33.31247758	     -7.11729765	     -0.94444772	     22.18244653	     22.18244653	      0.91024097	     -9.23526192	      4.73203571	     -9.49430257	      5.63155897	      4.20225011	     49.43875700	    -17.41458071	     -2.79318897	     91.94652768	     44.40290966	      0.00000000	      0.00000000	    -22.88467691	    -10.46804472	     17.35679602	     34.28462093	     44.58784328	      0.00000000	      0.00000000
     45.43628571	     -4.87836659	     -5.67855663	      6.95166652	      1.07700808	      0.90827253	      0.45906296	     -2.89965000	      2.80631008	    -16.78038532	     14.26174495	     14.26174495	     21.05892844	      1.61793884	     -1.52982110	     33.38970828	     -6.82316336	     -0.39352067	     23.54808582	     23.54808582	      0.75363427	    -10.41473765	      4.23704167	     -9.34242972	      5.51153898	      4.02703200	     48.78445858	    -17.17048578	     -2.98635515	     93.04263016	     44.38419827	      0.00000000	      0.00000000	    -22.70080899	    -10.30233297	     17.22008804	     34.19621913	     44.62168193	      0.00000000	      0.00000000
     45.44785714	     -4.77514674	     -5.40666510	      6.90419915	      1.07837762	      0.90806962	      0.45599043	     -2.99033600	      2.10288799	    -16.65453286	     15.70832478	     15.70832478	     21.27057825	      1.26952212	     -1.97379076	     33.08107156	     -6.35433413	      0.13681928	     24.57393745	     24.57393745	      0.83176416	    -11.57005446	      3.95732206	     -9.29215981	      5.26608746	      4.21273155	     47.49700966	    -17.26153201	     -3.46489311	     94.24948506	     44.37629186	      0.00000000	      0.00000000	    -22.18118607	    -10.18379880	     16.88641634	     34.00581885	     44.69169989	      0.00000000	      0.00000000
     45.45942857	     -4.62850639	     -5.24214833	      6.84008031	      1.07951195	      0.90838831	      0.45294420	     -3.00445522	      1.47372804	    -16.54467971	     17.28550979	     17.28550979	     21.13728101	      0.99687919	     -2.53803474	     32.78360213	     -6.04840012	      0.55071240	     25.62763311	     25.62763311	      1.19305057	    -12.31208747	      3.84805100	     -9.43643372	      5.07552209	      4.17893148	     46.38267207	    -17.25633714	     -3.77480267	     94.86170894	     44.37525581	      0.00000000	      0.00000000	    -21.45219410	     -9.97801080	     16.67080918	     33.89652411	     44.74204817	      0.00000000	      0.00000000
     45.47100000	     -4.38854311	     -5.03748838	      6.78925446	      1.08076082	      0.90921276	      0.44965436	     -3.01957022	      0.75735564	    -16.42828969	     19.06113885	     19.06113885	     20.92125235	      0.68585802	     -3.20667178	     32.28135587	     -5.70162030	      0.85203017	     26.53190362	     26.53190362	      1.79442932	    -12.98430534	      3.79167356	     -9.59945113	      4.95919742	      4.09012113	     45.08858049	    -17.16419777	     -3.96351775	     95.14367210	     44.37521932	      0.00000000	      0.00000000	    -20.73945252	     -9.86153950	     16.48075188	     33.80225225	     44.78406981	      0.00000000	      0.00000000
